<mxfile host="Electron" agent="Mozilla/5.0 (Macintosh; Intel Mac OS X 10_15_7) AppleWebKit/537.36 (KHTML, like Gecko) draw.io/24.7.17 Chrome/128.0.6613.36 Electron/32.0.1 Safari/537.36" version="24.7.17">
  <diagram name="Page-1" id="BwSjghrZXxt3-IuuPOMQ">
    <mxGraphModel dx="1191" dy="791" grid="1" gridSize="10" guides="1" tooltips="1" connect="1" arrows="1" fold="1" page="1" pageScale="1" pageWidth="827" pageHeight="1169" math="0" shadow="0">
      <root>
        <mxCell id="0" />
        <mxCell id="1" parent="0" />
        <mxCell id="vcgYRnqni11JxuOoUsL6-2" value="Azure&amp;nbsp;" style="swimlane;whiteSpace=wrap;html=1;" vertex="1" parent="1">
          <mxGeometry x="240" y="130" width="690" height="410" as="geometry" />
        </mxCell>
        <mxCell id="vcgYRnqni11JxuOoUsL6-1" value="" style="verticalLabelPosition=bottom;html=1;verticalAlign=top;align=center;strokeColor=none;fillColor=#00BEF2;shape=mxgraph.azure.azure_instance;" vertex="1" parent="vcgYRnqni11JxuOoUsL6-2">
          <mxGeometry x="-20" y="-20" width="50" height="50" as="geometry" />
        </mxCell>
        <mxCell id="vcgYRnqni11JxuOoUsL6-4" value="westus" style="swimlane;whiteSpace=wrap;html=1;" vertex="1" parent="vcgYRnqni11JxuOoUsL6-2">
          <mxGeometry x="350" y="70" width="330" height="290" as="geometry" />
        </mxCell>
        <mxCell id="vcgYRnqni11JxuOoUsL6-12" value="" style="shape=image;aspect=fixed;image=data:image/svg+xml,PHN2ZyB3aWR0aD0iMjkxIiBoZWlnaHQ9IjIwOCIgdmlld0JveD0iMCAwIDI5MSAyMDgiIGZpbGw9Im5vbmUiIHhtbG5zPSJodHRwOi8vd3d3LnczLm9yZy8yMDAwL3N2ZyI+CjxyZWN0IHdpZHRoPSIyOTEiIGhlaWdodD0iMjA4IiBmaWxsPSJ3aGl0ZSIvPgo8cGF0aCBkPSJNMTA1Ljg5OSA0Mi42QzEwNC44OTkgNDAuMyAxMDIuNzk5IDM5IDk5Ljk5OTIgMzlDOTcuOTk5MiAzOSA5NS4xOTkyIDQwLjEgOTMuNzk5MiA0My40TDgzLjQ5OTIgNjQuOUM4Mi4zOTkyIDY2LjggODIuNzk5MiA2OC4xIDgzLjI5OTIgNjguOUM4My45OTkyIDcwIDg1LjM5OTIgNzAuNSA4Ni4wOTkyIDcwLjVIODYuMTk5MkM4Ny40OTkyIDcwLjUgODguNjk5MiA2OS43IDg5LjI5OTIgNjguNEM4OS40OTkyIDY3LjkgOTAuMjk5MiA2Ni4yIDkwLjk5OTIgNjQuOEM5MS40OTkyIDYzLjggOTEuNzk5MiA2My4yIDkxLjg5OTIgNjIuOUg5OS45OTkyQzEwMS43OTkgNjIuOSAxMDMuMTk5IDYxLjQgMTAzLjE5OSA1OS41QzEwMy4xOTkgNTcuNiAxMDEuNzk5IDU2LjEgOTkuOTk5MiA1Ni4xSDk1LjA5OTJMOTkuNTk5MiA0Ni44VjQ2LjdDOTkuNzk5MiA0Ni4zIDk5Ljg5OTIgNDYuMyA5OS43OTkyIDQ2LjNDOTkuODk5MiA0Ni4zIDk5Ljk5OTIgNDYuMyA5OS45OTkyIDQ2LjNDMTAwLjA5OSA0Ni4zIDEwMC4xOTkgNDYuNyAxMDAuMjk5IDQ2LjhMMTEwLjU5OSA2OC40QzExMC44OTkgNjkgMTExLjY5OSA3MCAxMTIuODk5IDcwLjRDMTEzLjc5OSA3MC42IDExNC43OTkgNzAuNSAxMTUuNjk5IDY5LjhDMTE3LjE5OSA2OC45IDExNy40OTkgNjYuOSAxMTYuNTk5IDY1LjJMMTA1Ljg5OSA0Mi42WiIgZmlsbD0iIzI2MDBGRiIvPgo8cGF0aCBkPSJNMTM4LjIwMSA1MS4zOTk5SDEyOS41MDFDMTI3LjQwMSA1MS4zOTk5IDEyNi4wMDEgNTAuMjk5OSAxMjYuMDAxIDQ4LjM5OTlDMTI2LjAwMSA0Ni40OTk5IDEyNy4zMDEgNDUuMzk5OSAxMjkuNTAxIDQ1LjM5OTlIMTQzLjYwMUMxNDUuNjAxIDQ1LjM5OTkgMTQ2LjYwMSA0My42OTk5IDE0Ni42MDEgNDIuMDk5OUMxNDYuNjAxIDQwLjI5OTkgMTQ1LjMwMSAzOC44OTk5IDE0My42MDEgMzguODk5OUgxMjkuNDAxQzEyMy45MDEgMzguODk5OSAxMTkuODAxIDQyLjk5OTkgMTE5LjgwMSA0OC4yOTk5QzExOS44MDEgNTMuNjk5OSAxMjMuOTAxIDU3LjY5OTkgMTI5LjQwMSA1Ny42OTk5SDEzOC4wMDFDMTQwLjEwMSA1Ny42OTk5IDE0MS41MDEgNTguOTk5OSAxNDEuNTAxIDYwLjg5OTlDMTQxLjUwMSA2Mi43OTk5IDE0MC4yMDEgNjMuODk5OSAxMzguMDAxIDYzLjg5OTlIMTI0LjAwMUMxMjIuMzAxIDYzLjg5OTkgMTIxLjAwMSA2NS4yOTk5IDEyMS4wMDEgNjcuMDk5OUMxMjEuMDAxIDY3Ljk5OTkgMTIxLjMwMSA2OC44OTk5IDEyMS45MDEgNjkuNDk5OUMxMjIuNTAxIDcwLjA5OTkgMTIzLjIwMSA3MC4zOTk5IDEyNC4wMDEgNzAuMzk5OUgxMzguMTAxQzE0My42MDEgNzAuMzk5OSAxNDcuNjAxIDY2LjM5OTkgMTQ3LjYwMSA2MC45OTk5QzE0Ny42MDEgNTUuNjk5OSAxNDMuNTAxIDUxLjM5OTkgMTM4LjIwMSA1MS4zOTk5WiIgZmlsbD0iIzI2MDBGRiIvPgo8cGF0aCBkPSJNMTc2LjQwMiAzOUgxNTMuNTAyQzE1MS42MDIgMzkgMTUwLjEwMiA0MC40IDE1MC4xMDIgNDIuMkMxNTAuMTAyIDQzLjkgMTUxLjYwMiA0NS40IDE1My41MDIgNDUuNEgxNjEuNjAyVjY3LjNDMTYxLjYwMiA2OS4yIDE2My4xMDIgNzAuNyAxNjUuMDAyIDcwLjdDMTY2LjkwMiA3MC43IDE2OC40MDIgNjkuMiAxNjguNDAyIDY3LjNWNDUuM0gxNzYuNTAyQzE3OC40MDIgNDUuMyAxNzkuOTAyIDQzLjkgMTc5LjkwMiA0Mi4xQzE3OS44MDIgNDAuNCAxNzguMzAyIDM5IDE3Ni40MDIgMzlaIiBmaWxsPSIjMjYwMEZGIi8+CjxwYXRoIGQ9Ik0xODYuODAyIDQ1LjRIMjA3LjIwMkMyMDkuMTAyIDQ1LjQgMjEwLjYwMiA0NCAyMTAuNjAyIDQyLjJDMjEwLjYwMiA0MC40IDIwOS4xMDIgMzkgMjA3LjIwMiAzOUgxODYuODAyQzE4NC45MDIgMzkgMTgzLjQwMiA0MC40IDE4My40MDIgNDIuMkMxODMuNDAyIDQ0IDE4NC45MDIgNDUuNCAxODYuODAyIDQ1LjRaIiBmaWxsPSIjMjYwMEZGIi8+CjxwYXRoIGQ9Ik0xOTEuNSA1Ny42OTk4SDIwNy4zQzIwOS4yIDU3LjY5OTggMjEwLjcgNTYuMjk5OCAyMTAuNyA1NC40OTk4QzIxMC43IDUyLjc5OTggMjA5LjIgNTEuMjk5OCAyMDcuMyA1MS4yOTk4SDE5MC43QzE5MC41IDUxLjI5OTggMTg4LjYgNTEuMjk5OCAxODcuOCA1MS41OTk4QzE4Ny4zIDUxLjc5OTggMTg2LjggNTEuOTk5OCAxODYuMyA1Mi4yOTk4QzE4NC42IDUzLjM5OTggMTgzLjYgNTUuMjk5OCAxODMuNSA1Ny4zOTk4VjYyLjU5OThWNjQuODk5OEMxODMuNyA2Ni43OTk4IDE4NC43IDY4LjQ5OTggMTg2LjIgNjkuNDk5OEMxODYuNiA2OS43OTk4IDE4Ny4xIDY5Ljk5OTggMTg3LjcgNzAuMTk5OEMxODguNSA3MC40OTk4IDE5MC41IDcwLjQ5OTggMTkwLjYgNzAuNDk5OEgyMDcuM0MyMDkuMiA3MC40OTk4IDIxMC43IDY5LjA5OTggMjEwLjcgNjcuMjk5OEMyMTAuNyA2NS40OTk4IDIwOS4yIDY0LjA5OTggMjA3LjMgNjQuMDk5OEgxOTEuNUMxOTAuOCA2NC4wOTk4IDE4OS45IDYzLjY5OTggMTg5LjkgNjIuNzk5OFY1OC43OTk4QzE4OS44IDU3Ljk5OTggMTkwLjMgNTcuNjk5OCAxOTEuNSA1Ny42OTk4WiIgZmlsbD0iIzI2MDBGRiIvPgo8cGF0aCBkPSJNNTEuMjAwOCAzOUM0OS4zMDA4IDM5IDQ3LjgwMDggNDAuNSA0Ny44MDA4IDQyLjRWNjcuMUM0Ny44MDA4IDY5IDQ5LjMwMDggNzAuNSA1MS4yMDA4IDcwLjVDNTMuMTAwOCA3MC41IDU0LjYwMDggNjkgNTQuNjAwOCA2Ny4xVjQyLjRDNTQuNjAwOCA0MC41IDUzLjEwMDggMzkgNTEuMjAwOCAzOVoiIGZpbGw9IiMyNjAwRkYiLz4KPHBhdGggZD0iTTc3LjkwMDggNjQuNTk5OUw2Ni41MDA4IDU0Ljc5OTlMNzcuODAwOCA0NS4wOTk5Qzc5LjEwMDggNDMuOTk5OSA3OS40MDA4IDQyLjE5OTkgNzguNjAwOCA0MC43OTk5Qzc4LjEwMDggMzkuODk5OSA3Ny4yMDA4IDM5LjI5OTkgNzYuMjAwOCAzOS4wOTk5Qzc1LjIwMDggMzguODk5OSA3NC4yMDA4IDM5LjE5OTkgNzMuNDAwOCAzOS44OTk5TDU3LjMwMDggNTMuNjk5OUM1Ny4wMDA4IDUzLjk5OTkgNTYuODAwOCA1NC4zOTk5IDU2LjgwMDggNTQuNzk5OUM1Ni44MDA4IDU1LjE5OTkgNTcuMDAwOCA1NS41OTk5IDU3LjMwMDggNTUuODk5OUw3My4zMDA4IDY5LjY5OTlDNzQuMDAwOCA3MC4yOTk5IDc0LjgwMDggNzAuNTk5OSA3NS42MDA4IDcwLjU5OTlDNzYuMzAwOCA3MC41OTk5IDc3LjAwMDggNzAuMzk5OSA3Ny42MDA4IDY5Ljg5OTlDNzguNDAwOCA2OS4yOTk5IDc4LjkwMDggNjguMjk5OSA3OC45MDA4IDY3LjI5OTlDNzkuMTAwOCA2Ni4xOTk5IDc4LjYwMDggNjUuMTk5OSA3Ny45MDA4IDY0LjU5OTlaIiBmaWxsPSIjMjYwMEZGIi8+CjxwYXRoIGQ9Ik0yNDAuMzk5IDM5QzIzOC4yOTkgMzkgMjM2Ljk5OSA0MC44IDIzNi45OTkgNDIuMlY2MS4zQzIzMy45OTkgNTYuNSAyMjUuMTk5IDQyLjQgMjI0Ljk5OSA0Mi4yQzIyNC4xOTkgNDEgMjIyLjI5OSAzOSAyMTkuNzk5IDM5QzIxNi42OTkgMzkgMjE0LjE5OSA0MS43IDIxNC4xOTkgNDUuMVY2Ny4yQzIxNC4xOTkgNjkuMSAyMTUuNTk5IDcwLjYgMjE3LjM5OSA3MC42QzIxOS4xOTkgNzAuNiAyMjAuNTk5IDY5LjEgMjIwLjU5OSA2Ny4yVjQ3LjRMMjMyLjc5OSA2Ni43QzIzNC4wOTkgNjguNSAyMzUuNjk5IDcwLjYgMjM4LjI5OSA3MC42QzI0MS41OTkgNzAuNiAyNDMuODk5IDY4LjIgMjQzLjg5OSA2NC41VjQyLjRDMjQzLjc5OSA0MC41IDI0Mi4yOTkgMzkgMjQwLjM5OSAzOVoiIGZpbGw9IiMyNjAwRkYiLz4KPHBhdGggZD0iTTIzOC40IDE2OS44SDUzLjFDNTAgMTY5LjggNDcuNSAxNjcuMyA0Ny41IDE2NC4yVjgyLjQwMDFDNDcuNSA3OS4zMDAxIDUwIDc2LjggNTMuMSA3Ni44SDIzOC4zQzI0MS40IDc2LjggMjQzLjkgNzkuMzAwMSAyNDMuOSA4Mi40MDAxVjE2NC4yQzI0NCAxNjcuMyAyNDEuNSAxNjkuOCAyMzguNCAxNjkuOFoiIGZpbGw9IiMyNjAwRkYiLz4KPHBhdGggZD0iTTc1Ljk5ODQgOTIuNDAwMUM3Mi42OTg0IDkyLjQwMDEgNjkuODk4NCA5NS4xMDAxIDY5Ljg5ODQgOTguNTAwMVYxNDguMUM2OS44OTg0IDE1MS40IDcyLjU5ODQgMTU0LjIgNzUuOTk4NCAxNTQuMkM3OS4yOTg0IDE1NC4yIDgyLjA5ODQgMTUxLjUgODIuMDk4NCAxNDguMVY5OC41MDAxQzgxLjk5ODQgOTUuMTAwMSA3OS4yOTg0IDkyLjQwMDEgNzUuOTk4NCA5Mi40MDAxWiIgZmlsbD0id2hpdGUiLz4KPHBhdGggZD0iTTExOS45OTcgOTIuNDAwMUMxMTguNTk3IDkyLjQwMDEgMTE3LjI5NyA5Mi45MDAxIDExNi4xOTcgOTMuOTAwMUwxMDQuOTk3IDEwNEMxMDQuODk3IDEwNCAxMDQuODk3IDEwNC4xIDEwNC44OTcgMTA0LjFMODYuMTk2OSAxMjFDODUuNDk2OSAxMjEuNiA4NC43OTY5IDEyMi4yIDg0Ljc5NjkgMTIzLjJDODQuNzk2OSAxMjQuNCA4NS42OTY5IDEyNS4yIDg2LjM5NjkgMTI1LjhDODYuNTk2OSAxMjYgODYuNzk2OSAxMjYuMSA4Ni44OTY5IDEyNi4zTDEwMC4wOTcgMTM3LjdMMTE2LjA5NyAxNTIuOUMxMTcuMjk3IDE1My45IDExOC42OTcgMTU0LjQgMTIwLjI5NyAxNTQuMkMxMjEuNzk3IDE1NC4xIDEyMy4xOTcgMTUzLjMgMTI0LjE5NyAxNTIuMUMxMjYuMTk3IDE0OS42IDEyNS44OTcgMTQ1LjggMTIzLjQ5NyAxNDMuN0wxMDEuMjk3IDEyMy4xTDExMi4xOTcgMTEzLjNDMTEyLjM5NyAxMTMuMiAxMTIuNDk3IDExMy4xIDExMi41OTcgMTEzTDEyMy43OTcgMTAyLjlDMTI2LjE5NyAxMDAuNyAxMjYuMzk3IDk3LjAwMDEgMTI0LjM5NyA5NC41MDAxQzEyMy4zOTcgOTMuMzAwMSAxMjEuOTk3IDkyLjYwMDEgMTIwLjQ5NyA5Mi41MDAxQzEyMC4yOTcgOTIuNDAwMSAxMjAuMTk3IDkyLjQwMDEgMTE5Ljk5NyA5Mi40MDAxWiIgZmlsbD0id2hpdGUiLz4KPHBhdGggZD0iTTE0OC42IDkyLjQwMDFIMTQ4LjVIMTQ4LjRIMTQyLjlDMTM5LjQgOTIuNDAwMSAxMzYuNSA5NS4yMDAxIDEzNi41IDk4LjgwMDFDMTM2LjUgMTAyLjIgMTM5LjIgMTA1IDE0Mi41IDEwNS4xVjE0OC4xQzE0Mi41IDE1MS40IDE0NS4yIDE1NC4yIDE0OC42IDE1NC4yQzE1MS45IDE1NC4yIDE1NC43IDE1MS41IDE1NC43IDE0OC4xVjk4LjgwMDFWOTguNTAwMUMxNTQuNyA5NS4xMDAxIDE1MiA5Mi40MDAxIDE0OC42IDkyLjQwMDFaIiBmaWxsPSJ3aGl0ZSIvPgo8cGF0aCBkPSJNMjI1LjA5NyAxMjAuNUwyMTAuNzk3IDk1LjYwMDFDMjA5Ljc5NyA5My43MDAxIDIwNy43OTcgOTIuNjAwMSAyMDUuNjk3IDkyLjYwMDFIMTkxLjg5N0gxOTEuNjk3SDE3Ny44OTdDMTc1Ljc5NyA5Mi42MDAxIDE3My43OTcgOTMuNzAwMSAxNzIuNzk3IDk1LjYwMDFMMTU4LjQ5NyAxMjAuNUMxNTcuOTk3IDEyMS4zIDE1Ny43OTcgMTIyLjEgMTU3Ljc5NyAxMjNDMTU3Ljc5NyAxMjMuOSAxNTcuOTk3IDEyNC44IDE1OC40OTcgMTI1LjZMMTcyLjc5NyAxNTAuNUMxNzMuODk3IDE1Mi40IDE3NS43OTcgMTUzLjUgMTc3Ljg5NyAxNTMuNUMxNzcuODk3IDE1My41IDE4NC43OTcgMTUzLjUgMTkxLjY5NyAxNTMuNUMxOTEuNzk3IDE1My41IDE5MS43OTcgMTUzLjUgMTkxLjg5NyAxNTMuNUMxOTguNzk3IDE1My41IDIwNS42OTcgMTUzLjUgMjA1LjY5NyAxNTMuNUMyMDcuNzk3IDE1My41IDIwOS43OTcgMTUyLjQgMjEwLjc5NyAxNTAuNUwyMjUuMDk3IDEyNS42QzIyNS41OTcgMTI0LjggMjI1Ljc5NyAxMjMuOSAyMjUuNzk3IDEyM0MyMjUuNzk3IDEyMi4yIDIyNS41OTcgMTIxLjMgMjI1LjA5NyAxMjAuNVpNMjAyLjE5NyAxNDEuNUgxOTEuODk3SDE5MS42OTdIMTgxLjM5N0wxNzAuODk3IDEyMy4xTDE4MS4zOTcgMTA0LjhIMTkxLjY5N0gxOTEuODk3SDIwMi4xOTdMMjEyLjY5NyAxMjMuMUwyMDIuMTk3IDE0MS41WiIgZmlsbD0id2hpdGUiLz4KPC9zdmc+Cg==;" vertex="1" parent="vcgYRnqni11JxuOoUsL6-4">
          <mxGeometry x="260.05" y="30" width="69.95" height="50" as="geometry" />
        </mxCell>
        <mxCell id="vcgYRnqni11JxuOoUsL6-17" value="snapshot copy" style="image;aspect=fixed;html=1;points=[];align=center;fontSize=12;image=img/lib/azure2/compute/Disks_Snapshots.svg;" vertex="1" parent="vcgYRnqni11JxuOoUsL6-4">
          <mxGeometry x="46" y="130" width="68" height="71" as="geometry" />
        </mxCell>
        <mxCell id="vcgYRnqni11JxuOoUsL6-21" value="" style="image;aspect=fixed;html=1;points=[];align=center;fontSize=12;image=img/lib/azure2/containers/Kubernetes_Services.svg;" vertex="1" parent="vcgYRnqni11JxuOoUsL6-4">
          <mxGeometry x="-10" y="-20" width="68" height="60" as="geometry" />
        </mxCell>
        <mxCell id="vcgYRnqni11JxuOoUsL6-22" value="blob storage" style="verticalLabelPosition=bottom;html=1;verticalAlign=top;align=center;strokeColor=none;fillColor=#00BEF2;shape=mxgraph.azure.storage_blob;" vertex="1" parent="vcgYRnqni11JxuOoUsL6-4">
          <mxGeometry x="49" y="40" width="50" height="45" as="geometry" />
        </mxCell>
        <mxCell id="vcgYRnqni11JxuOoUsL6-23" value="" style="endArrow=classic;html=1;rounded=0;entryX=0.412;entryY=-0.028;entryDx=0;entryDy=0;entryPerimeter=0;exitX=0.5;exitY=1;exitDx=0;exitDy=0;exitPerimeter=0;" edge="1" parent="vcgYRnqni11JxuOoUsL6-4" source="vcgYRnqni11JxuOoUsL6-22" target="vcgYRnqni11JxuOoUsL6-17">
          <mxGeometry width="50" height="50" relative="1" as="geometry">
            <mxPoint x="-200" y="230" as="sourcePoint" />
            <mxPoint x="-150" y="180" as="targetPoint" />
          </mxGeometry>
        </mxCell>
        <mxCell id="vcgYRnqni11JxuOoUsL6-25" value="" style="endArrow=classic;html=1;rounded=0;entryX=1;entryY=0.479;entryDx=0;entryDy=0;entryPerimeter=0;exitX=0;exitY=1;exitDx=0;exitDy=0;" edge="1" parent="vcgYRnqni11JxuOoUsL6-4" source="vcgYRnqni11JxuOoUsL6-12" target="vcgYRnqni11JxuOoUsL6-17">
          <mxGeometry width="50" height="50" relative="1" as="geometry">
            <mxPoint x="-200" y="230" as="sourcePoint" />
            <mxPoint x="-150" y="180" as="targetPoint" />
          </mxGeometry>
        </mxCell>
        <mxCell id="vcgYRnqni11JxuOoUsL6-26" value="restore" style="edgeLabel;html=1;align=center;verticalAlign=middle;resizable=0;points=[];" vertex="1" connectable="0" parent="vcgYRnqni11JxuOoUsL6-25">
          <mxGeometry x="-0.0453" y="3" relative="1" as="geometry">
            <mxPoint y="1" as="offset" />
          </mxGeometry>
        </mxCell>
        <mxCell id="vcgYRnqni11JxuOoUsL6-3" value="eastus" style="swimlane;whiteSpace=wrap;html=1;" vertex="1" parent="vcgYRnqni11JxuOoUsL6-2">
          <mxGeometry x="19" y="70" width="310" height="290" as="geometry" />
        </mxCell>
        <mxCell id="vcgYRnqni11JxuOoUsL6-8" value="" style="shape=image;aspect=fixed;image=data:image/svg+xml,PHN2ZyB3aWR0aD0iMjkxIiBoZWlnaHQ9IjIwOCIgdmlld0JveD0iMCAwIDI5MSAyMDgiIGZpbGw9Im5vbmUiIHhtbG5zPSJodHRwOi8vd3d3LnczLm9yZy8yMDAwL3N2ZyI+CjxyZWN0IHdpZHRoPSIyOTEiIGhlaWdodD0iMjA4IiBmaWxsPSJ3aGl0ZSIvPgo8cGF0aCBkPSJNMTA1Ljg5OSA0Mi42QzEwNC44OTkgNDAuMyAxMDIuNzk5IDM5IDk5Ljk5OTIgMzlDOTcuOTk5MiAzOSA5NS4xOTkyIDQwLjEgOTMuNzk5MiA0My40TDgzLjQ5OTIgNjQuOUM4Mi4zOTkyIDY2LjggODIuNzk5MiA2OC4xIDgzLjI5OTIgNjguOUM4My45OTkyIDcwIDg1LjM5OTIgNzAuNSA4Ni4wOTkyIDcwLjVIODYuMTk5MkM4Ny40OTkyIDcwLjUgODguNjk5MiA2OS43IDg5LjI5OTIgNjguNEM4OS40OTkyIDY3LjkgOTAuMjk5MiA2Ni4yIDkwLjk5OTIgNjQuOEM5MS40OTkyIDYzLjggOTEuNzk5MiA2My4yIDkxLjg5OTIgNjIuOUg5OS45OTkyQzEwMS43OTkgNjIuOSAxMDMuMTk5IDYxLjQgMTAzLjE5OSA1OS41QzEwMy4xOTkgNTcuNiAxMDEuNzk5IDU2LjEgOTkuOTk5MiA1Ni4xSDk1LjA5OTJMOTkuNTk5MiA0Ni44VjQ2LjdDOTkuNzk5MiA0Ni4zIDk5Ljg5OTIgNDYuMyA5OS43OTkyIDQ2LjNDOTkuODk5MiA0Ni4zIDk5Ljk5OTIgNDYuMyA5OS45OTkyIDQ2LjNDMTAwLjA5OSA0Ni4zIDEwMC4xOTkgNDYuNyAxMDAuMjk5IDQ2LjhMMTEwLjU5OSA2OC40QzExMC44OTkgNjkgMTExLjY5OSA3MCAxMTIuODk5IDcwLjRDMTEzLjc5OSA3MC42IDExNC43OTkgNzAuNSAxMTUuNjk5IDY5LjhDMTE3LjE5OSA2OC45IDExNy40OTkgNjYuOSAxMTYuNTk5IDY1LjJMMTA1Ljg5OSA0Mi42WiIgZmlsbD0iIzI2MDBGRiIvPgo8cGF0aCBkPSJNMTM4LjIwMSA1MS4zOTk5SDEyOS41MDFDMTI3LjQwMSA1MS4zOTk5IDEyNi4wMDEgNTAuMjk5OSAxMjYuMDAxIDQ4LjM5OTlDMTI2LjAwMSA0Ni40OTk5IDEyNy4zMDEgNDUuMzk5OSAxMjkuNTAxIDQ1LjM5OTlIMTQzLjYwMUMxNDUuNjAxIDQ1LjM5OTkgMTQ2LjYwMSA0My42OTk5IDE0Ni42MDEgNDIuMDk5OUMxNDYuNjAxIDQwLjI5OTkgMTQ1LjMwMSAzOC44OTk5IDE0My42MDEgMzguODk5OUgxMjkuNDAxQzEyMy45MDEgMzguODk5OSAxMTkuODAxIDQyLjk5OTkgMTE5LjgwMSA0OC4yOTk5QzExOS44MDEgNTMuNjk5OSAxMjMuOTAxIDU3LjY5OTkgMTI5LjQwMSA1Ny42OTk5SDEzOC4wMDFDMTQwLjEwMSA1Ny42OTk5IDE0MS41MDEgNTguOTk5OSAxNDEuNTAxIDYwLjg5OTlDMTQxLjUwMSA2Mi43OTk5IDE0MC4yMDEgNjMuODk5OSAxMzguMDAxIDYzLjg5OTlIMTI0LjAwMUMxMjIuMzAxIDYzLjg5OTkgMTIxLjAwMSA2NS4yOTk5IDEyMS4wMDEgNjcuMDk5OUMxMjEuMDAxIDY3Ljk5OTkgMTIxLjMwMSA2OC44OTk5IDEyMS45MDEgNjkuNDk5OUMxMjIuNTAxIDcwLjA5OTkgMTIzLjIwMSA3MC4zOTk5IDEyNC4wMDEgNzAuMzk5OUgxMzguMTAxQzE0My42MDEgNzAuMzk5OSAxNDcuNjAxIDY2LjM5OTkgMTQ3LjYwMSA2MC45OTk5QzE0Ny42MDEgNTUuNjk5OSAxNDMuNTAxIDUxLjM5OTkgMTM4LjIwMSA1MS4zOTk5WiIgZmlsbD0iIzI2MDBGRiIvPgo8cGF0aCBkPSJNMTc2LjQwMiAzOUgxNTMuNTAyQzE1MS42MDIgMzkgMTUwLjEwMiA0MC40IDE1MC4xMDIgNDIuMkMxNTAuMTAyIDQzLjkgMTUxLjYwMiA0NS40IDE1My41MDIgNDUuNEgxNjEuNjAyVjY3LjNDMTYxLjYwMiA2OS4yIDE2My4xMDIgNzAuNyAxNjUuMDAyIDcwLjdDMTY2LjkwMiA3MC43IDE2OC40MDIgNjkuMiAxNjguNDAyIDY3LjNWNDUuM0gxNzYuNTAyQzE3OC40MDIgNDUuMyAxNzkuOTAyIDQzLjkgMTc5LjkwMiA0Mi4xQzE3OS44MDIgNDAuNCAxNzguMzAyIDM5IDE3Ni40MDIgMzlaIiBmaWxsPSIjMjYwMEZGIi8+CjxwYXRoIGQ9Ik0xODYuODAyIDQ1LjRIMjA3LjIwMkMyMDkuMTAyIDQ1LjQgMjEwLjYwMiA0NCAyMTAuNjAyIDQyLjJDMjEwLjYwMiA0MC40IDIwOS4xMDIgMzkgMjA3LjIwMiAzOUgxODYuODAyQzE4NC45MDIgMzkgMTgzLjQwMiA0MC40IDE4My40MDIgNDIuMkMxODMuNDAyIDQ0IDE4NC45MDIgNDUuNCAxODYuODAyIDQ1LjRaIiBmaWxsPSIjMjYwMEZGIi8+CjxwYXRoIGQ9Ik0xOTEuNSA1Ny42OTk4SDIwNy4zQzIwOS4yIDU3LjY5OTggMjEwLjcgNTYuMjk5OCAyMTAuNyA1NC40OTk4QzIxMC43IDUyLjc5OTggMjA5LjIgNTEuMjk5OCAyMDcuMyA1MS4yOTk4SDE5MC43QzE5MC41IDUxLjI5OTggMTg4LjYgNTEuMjk5OCAxODcuOCA1MS41OTk4QzE4Ny4zIDUxLjc5OTggMTg2LjggNTEuOTk5OCAxODYuMyA1Mi4yOTk4QzE4NC42IDUzLjM5OTggMTgzLjYgNTUuMjk5OCAxODMuNSA1Ny4zOTk4VjYyLjU5OThWNjQuODk5OEMxODMuNyA2Ni43OTk4IDE4NC43IDY4LjQ5OTggMTg2LjIgNjkuNDk5OEMxODYuNiA2OS43OTk4IDE4Ny4xIDY5Ljk5OTggMTg3LjcgNzAuMTk5OEMxODguNSA3MC40OTk4IDE5MC41IDcwLjQ5OTggMTkwLjYgNzAuNDk5OEgyMDcuM0MyMDkuMiA3MC40OTk4IDIxMC43IDY5LjA5OTggMjEwLjcgNjcuMjk5OEMyMTAuNyA2NS40OTk4IDIwOS4yIDY0LjA5OTggMjA3LjMgNjQuMDk5OEgxOTEuNUMxOTAuOCA2NC4wOTk4IDE4OS45IDYzLjY5OTggMTg5LjkgNjIuNzk5OFY1OC43OTk4QzE4OS44IDU3Ljk5OTggMTkwLjMgNTcuNjk5OCAxOTEuNSA1Ny42OTk4WiIgZmlsbD0iIzI2MDBGRiIvPgo8cGF0aCBkPSJNNTEuMjAwOCAzOUM0OS4zMDA4IDM5IDQ3LjgwMDggNDAuNSA0Ny44MDA4IDQyLjRWNjcuMUM0Ny44MDA4IDY5IDQ5LjMwMDggNzAuNSA1MS4yMDA4IDcwLjVDNTMuMTAwOCA3MC41IDU0LjYwMDggNjkgNTQuNjAwOCA2Ny4xVjQyLjRDNTQuNjAwOCA0MC41IDUzLjEwMDggMzkgNTEuMjAwOCAzOVoiIGZpbGw9IiMyNjAwRkYiLz4KPHBhdGggZD0iTTc3LjkwMDggNjQuNTk5OUw2Ni41MDA4IDU0Ljc5OTlMNzcuODAwOCA0NS4wOTk5Qzc5LjEwMDggNDMuOTk5OSA3OS40MDA4IDQyLjE5OTkgNzguNjAwOCA0MC43OTk5Qzc4LjEwMDggMzkuODk5OSA3Ny4yMDA4IDM5LjI5OTkgNzYuMjAwOCAzOS4wOTk5Qzc1LjIwMDggMzguODk5OSA3NC4yMDA4IDM5LjE5OTkgNzMuNDAwOCAzOS44OTk5TDU3LjMwMDggNTMuNjk5OUM1Ny4wMDA4IDUzLjk5OTkgNTYuODAwOCA1NC4zOTk5IDU2LjgwMDggNTQuNzk5OUM1Ni44MDA4IDU1LjE5OTkgNTcuMDAwOCA1NS41OTk5IDU3LjMwMDggNTUuODk5OUw3My4zMDA4IDY5LjY5OTlDNzQuMDAwOCA3MC4yOTk5IDc0LjgwMDggNzAuNTk5OSA3NS42MDA4IDcwLjU5OTlDNzYuMzAwOCA3MC41OTk5IDc3LjAwMDggNzAuMzk5OSA3Ny42MDA4IDY5Ljg5OTlDNzguNDAwOCA2OS4yOTk5IDc4LjkwMDggNjguMjk5OSA3OC45MDA4IDY3LjI5OTlDNzkuMTAwOCA2Ni4xOTk5IDc4LjYwMDggNjUuMTk5OSA3Ny45MDA4IDY0LjU5OTlaIiBmaWxsPSIjMjYwMEZGIi8+CjxwYXRoIGQ9Ik0yNDAuMzk5IDM5QzIzOC4yOTkgMzkgMjM2Ljk5OSA0MC44IDIzNi45OTkgNDIuMlY2MS4zQzIzMy45OTkgNTYuNSAyMjUuMTk5IDQyLjQgMjI0Ljk5OSA0Mi4yQzIyNC4xOTkgNDEgMjIyLjI5OSAzOSAyMTkuNzk5IDM5QzIxNi42OTkgMzkgMjE0LjE5OSA0MS43IDIxNC4xOTkgNDUuMVY2Ny4yQzIxNC4xOTkgNjkuMSAyMTUuNTk5IDcwLjYgMjE3LjM5OSA3MC42QzIxOS4xOTkgNzAuNiAyMjAuNTk5IDY5LjEgMjIwLjU5OSA2Ny4yVjQ3LjRMMjMyLjc5OSA2Ni43QzIzNC4wOTkgNjguNSAyMzUuNjk5IDcwLjYgMjM4LjI5OSA3MC42QzI0MS41OTkgNzAuNiAyNDMuODk5IDY4LjIgMjQzLjg5OSA2NC41VjQyLjRDMjQzLjc5OSA0MC41IDI0Mi4yOTkgMzkgMjQwLjM5OSAzOVoiIGZpbGw9IiMyNjAwRkYiLz4KPHBhdGggZD0iTTIzOC40IDE2OS44SDUzLjFDNTAgMTY5LjggNDcuNSAxNjcuMyA0Ny41IDE2NC4yVjgyLjQwMDFDNDcuNSA3OS4zMDAxIDUwIDc2LjggNTMuMSA3Ni44SDIzOC4zQzI0MS40IDc2LjggMjQzLjkgNzkuMzAwMSAyNDMuOSA4Mi40MDAxVjE2NC4yQzI0NCAxNjcuMyAyNDEuNSAxNjkuOCAyMzguNCAxNjkuOFoiIGZpbGw9IiMyNjAwRkYiLz4KPHBhdGggZD0iTTc1Ljk5ODQgOTIuNDAwMUM3Mi42OTg0IDkyLjQwMDEgNjkuODk4NCA5NS4xMDAxIDY5Ljg5ODQgOTguNTAwMVYxNDguMUM2OS44OTg0IDE1MS40IDcyLjU5ODQgMTU0LjIgNzUuOTk4NCAxNTQuMkM3OS4yOTg0IDE1NC4yIDgyLjA5ODQgMTUxLjUgODIuMDk4NCAxNDguMVY5OC41MDAxQzgxLjk5ODQgOTUuMTAwMSA3OS4yOTg0IDkyLjQwMDEgNzUuOTk4NCA5Mi40MDAxWiIgZmlsbD0id2hpdGUiLz4KPHBhdGggZD0iTTExOS45OTcgOTIuNDAwMUMxMTguNTk3IDkyLjQwMDEgMTE3LjI5NyA5Mi45MDAxIDExNi4xOTcgOTMuOTAwMUwxMDQuOTk3IDEwNEMxMDQuODk3IDEwNCAxMDQuODk3IDEwNC4xIDEwNC44OTcgMTA0LjFMODYuMTk2OSAxMjFDODUuNDk2OSAxMjEuNiA4NC43OTY5IDEyMi4yIDg0Ljc5NjkgMTIzLjJDODQuNzk2OSAxMjQuNCA4NS42OTY5IDEyNS4yIDg2LjM5NjkgMTI1LjhDODYuNTk2OSAxMjYgODYuNzk2OSAxMjYuMSA4Ni44OTY5IDEyNi4zTDEwMC4wOTcgMTM3LjdMMTE2LjA5NyAxNTIuOUMxMTcuMjk3IDE1My45IDExOC42OTcgMTU0LjQgMTIwLjI5NyAxNTQuMkMxMjEuNzk3IDE1NC4xIDEyMy4xOTcgMTUzLjMgMTI0LjE5NyAxNTIuMUMxMjYuMTk3IDE0OS42IDEyNS44OTcgMTQ1LjggMTIzLjQ5NyAxNDMuN0wxMDEuMjk3IDEyMy4xTDExMi4xOTcgMTEzLjNDMTEyLjM5NyAxMTMuMiAxMTIuNDk3IDExMy4xIDExMi41OTcgMTEzTDEyMy43OTcgMTAyLjlDMTI2LjE5NyAxMDAuNyAxMjYuMzk3IDk3LjAwMDEgMTI0LjM5NyA5NC41MDAxQzEyMy4zOTcgOTMuMzAwMSAxMjEuOTk3IDkyLjYwMDEgMTIwLjQ5NyA5Mi41MDAxQzEyMC4yOTcgOTIuNDAwMSAxMjAuMTk3IDkyLjQwMDEgMTE5Ljk5NyA5Mi40MDAxWiIgZmlsbD0id2hpdGUiLz4KPHBhdGggZD0iTTE0OC42IDkyLjQwMDFIMTQ4LjVIMTQ4LjRIMTQyLjlDMTM5LjQgOTIuNDAwMSAxMzYuNSA5NS4yMDAxIDEzNi41IDk4LjgwMDFDMTM2LjUgMTAyLjIgMTM5LjIgMTA1IDE0Mi41IDEwNS4xVjE0OC4xQzE0Mi41IDE1MS40IDE0NS4yIDE1NC4yIDE0OC42IDE1NC4yQzE1MS45IDE1NC4yIDE1NC43IDE1MS41IDE1NC43IDE0OC4xVjk4LjgwMDFWOTguNTAwMUMxNTQuNyA5NS4xMDAxIDE1MiA5Mi40MDAxIDE0OC42IDkyLjQwMDFaIiBmaWxsPSJ3aGl0ZSIvPgo8cGF0aCBkPSJNMjI1LjA5NyAxMjAuNUwyMTAuNzk3IDk1LjYwMDFDMjA5Ljc5NyA5My43MDAxIDIwNy43OTcgOTIuNjAwMSAyMDUuNjk3IDkyLjYwMDFIMTkxLjg5N0gxOTEuNjk3SDE3Ny44OTdDMTc1Ljc5NyA5Mi42MDAxIDE3My43OTcgOTMuNzAwMSAxNzIuNzk3IDk1LjYwMDFMMTU4LjQ5NyAxMjAuNUMxNTcuOTk3IDEyMS4zIDE1Ny43OTcgMTIyLjEgMTU3Ljc5NyAxMjNDMTU3Ljc5NyAxMjMuOSAxNTcuOTk3IDEyNC44IDE1OC40OTcgMTI1LjZMMTcyLjc5NyAxNTAuNUMxNzMuODk3IDE1Mi40IDE3NS43OTcgMTUzLjUgMTc3Ljg5NyAxNTMuNUMxNzcuODk3IDE1My41IDE4NC43OTcgMTUzLjUgMTkxLjY5NyAxNTMuNUMxOTEuNzk3IDE1My41IDE5MS43OTcgMTUzLjUgMTkxLjg5NyAxNTMuNUMxOTguNzk3IDE1My41IDIwNS42OTcgMTUzLjUgMjA1LjY5NyAxNTMuNUMyMDcuNzk3IDE1My41IDIwOS43OTcgMTUyLjQgMjEwLjc5NyAxNTAuNUwyMjUuMDk3IDEyNS42QzIyNS41OTcgMTI0LjggMjI1Ljc5NyAxMjMuOSAyMjUuNzk3IDEyM0MyMjUuNzk3IDEyMi4yIDIyNS41OTcgMTIxLjMgMjI1LjA5NyAxMjAuNVpNMjAyLjE5NyAxNDEuNUgxOTEuODk3SDE5MS42OTdIMTgxLjM5N0wxNzAuODk3IDEyMy4xTDE4MS4zOTcgMTA0LjhIMTkxLjY5N0gxOTEuODk3SDIwMi4xOTdMMjEyLjY5NyAxMjMuMUwyMDIuMTk3IDE0MS41WiIgZmlsbD0id2hpdGUiLz4KPC9zdmc+Cg==;" vertex="1" parent="vcgYRnqni11JxuOoUsL6-3">
          <mxGeometry x="20" y="50" width="69.95" height="50" as="geometry" />
        </mxCell>
        <mxCell id="vcgYRnqni11JxuOoUsL6-13" value="pvc" style="shape=cylinder3;whiteSpace=wrap;html=1;boundedLbl=1;backgroundOutline=1;size=15;" vertex="1" parent="vcgYRnqni11JxuOoUsL6-3">
          <mxGeometry x="50" y="140" width="60" height="65" as="geometry" />
        </mxCell>
        <mxCell id="vcgYRnqni11JxuOoUsL6-14" value="snapshot" style="image;aspect=fixed;html=1;points=[];align=center;fontSize=12;image=img/lib/azure2/compute/Disks_Snapshots.svg;" vertex="1" parent="vcgYRnqni11JxuOoUsL6-3">
          <mxGeometry x="161" y="137" width="68" height="71" as="geometry" />
        </mxCell>
        <mxCell id="vcgYRnqni11JxuOoUsL6-15" value="" style="endArrow=classic;html=1;rounded=0;exitX=0.5;exitY=1;exitDx=0;exitDy=0;" edge="1" parent="vcgYRnqni11JxuOoUsL6-3" source="vcgYRnqni11JxuOoUsL6-8" target="vcgYRnqni11JxuOoUsL6-13">
          <mxGeometry width="50" height="50" relative="1" as="geometry">
            <mxPoint x="131" y="230" as="sourcePoint" />
            <mxPoint x="181" y="180" as="targetPoint" />
          </mxGeometry>
        </mxCell>
        <mxCell id="vcgYRnqni11JxuOoUsL6-18" value="backup" style="edgeLabel;html=1;align=center;verticalAlign=middle;resizable=0;points=[];" vertex="1" connectable="0" parent="vcgYRnqni11JxuOoUsL6-15">
          <mxGeometry x="-0.0428" relative="1" as="geometry">
            <mxPoint as="offset" />
          </mxGeometry>
        </mxCell>
        <mxCell id="vcgYRnqni11JxuOoUsL6-16" value="" style="endArrow=classic;html=1;rounded=0;exitX=1;exitY=0.5;exitDx=0;exitDy=0;exitPerimeter=0;entryX=-0.059;entryY=0.479;entryDx=0;entryDy=0;entryPerimeter=0;" edge="1" parent="vcgYRnqni11JxuOoUsL6-3" source="vcgYRnqni11JxuOoUsL6-13" target="vcgYRnqni11JxuOoUsL6-14">
          <mxGeometry width="50" height="50" relative="1" as="geometry">
            <mxPoint x="131" y="230" as="sourcePoint" />
            <mxPoint x="181" y="180" as="targetPoint" />
          </mxGeometry>
        </mxCell>
        <mxCell id="vcgYRnqni11JxuOoUsL6-20" value="" style="image;aspect=fixed;html=1;points=[];align=center;fontSize=12;image=img/lib/azure2/containers/Kubernetes_Services.svg;" vertex="1" parent="vcgYRnqni11JxuOoUsL6-3">
          <mxGeometry x="-9" y="-20" width="68" height="60" as="geometry" />
        </mxCell>
        <mxCell id="vcgYRnqni11JxuOoUsL6-19" value="" style="endArrow=classic;html=1;rounded=0;exitX=0.985;exitY=0.437;exitDx=0;exitDy=0;exitPerimeter=0;" edge="1" parent="vcgYRnqni11JxuOoUsL6-2" source="vcgYRnqni11JxuOoUsL6-14">
          <mxGeometry width="50" height="50" relative="1" as="geometry">
            <mxPoint x="150" y="300" as="sourcePoint" />
            <mxPoint x="400" y="130" as="targetPoint" />
          </mxGeometry>
        </mxCell>
        <mxCell id="vcgYRnqni11JxuOoUsL6-24" value="export" style="edgeLabel;html=1;align=center;verticalAlign=middle;resizable=0;points=[];" vertex="1" connectable="0" parent="vcgYRnqni11JxuOoUsL6-19">
          <mxGeometry x="-0.1617" y="-2" relative="1" as="geometry">
            <mxPoint x="-1" as="offset" />
          </mxGeometry>
        </mxCell>
      </root>
    </mxGraphModel>
  </diagram>
</mxfile>
